<svg width="44" height="45" viewBox="0 0 44 45" fill="none" xmlns="http://www.w3.org/2000/svg">
<path d="M35.9836 19.3368C36.4148 19.3368 36.7624 19.6898 36.7624 20.1222V24.6447L36.7536 26.2816C36.7536 26.714 36.4016 27.0626 35.9704 27.0626H29.9908C29.4056 27.0626 28.8292 27.0008 28.2748 26.8861C24.8692 26.1978 22.1852 23.5019 21.5032 20.0825C21.3932 19.5266 21.336 18.9486 21.336 18.3573C21.3404 14.1084 24.3852 10.5786 28.4024 9.82854C28.772 9.75795 29.0448 9.44468 29.0448 9.06964V7.49449V7.47243H28.486L16.4872 7.45478V7.46802C16.1836 7.46802 15.8844 7.46802 15.5852 7.46802C14.4852 7.46802 14.4632 7.49008 14.4632 8.57107C14.4588 11.1919 14.4632 12.7715 14.4632 15.3967V17.5014C14.4632 17.9337 14.1156 18.2823 13.6844 18.2823H7.54638C7.11518 18.2823 6.76758 17.9337 6.76758 17.5014V11.1169C6.76758 8.73432 6.75878 6.35173 6.76758 3.96914C6.78078 1.46302 8.24598 0.0114031 10.7804 0.00699094C20.1348 0.00257875 19.7168 -0.00624565 29.0712 0.00699094C29.2472 0.00699094 29.4232 0.0114031 29.5992 0.0202275H32.9168C35.042 0.0290519 36.7624 1.75422 36.7624 3.88531V3.61176V4.3133L36.7536 13.2656C36.7536 15.6791 35.0244 17.4043 32.8992 17.3999H30.0128C29.4804 17.3999 29.0492 17.8279 29.0492 18.3617C29.0492 18.8956 29.4804 19.328 30.0128 19.328H35.9924L35.9836 19.3368Z" fill="#00537A"/>
<path d="M10.6176 27.0573C12.7439 27.0573 14.4676 25.3288 14.4676 23.1966C14.4676 21.0644 12.7439 19.3359 10.6176 19.3359C8.49128 19.3359 6.76758 21.0644 6.76758 23.1966C6.76758 25.3288 8.49128 27.0573 10.6176 27.0573Z" fill="#F5A201"/>
<path d="M7.1632 44.816H9.2928L4.8268 39.3846C5.5044 39.3537 6.1028 39.2125 6.622 38.9522C7.2072 38.661 7.656 38.2507 7.9728 37.7212C8.2896 37.1962 8.448 36.5784 8.448 35.8725C8.448 35.1665 8.2896 34.5841 7.9728 34.0591C7.656 33.534 7.2072 33.1149 6.622 32.8104C6.0368 32.506 5.3504 32.3516 4.5628 32.3516H0V44.816H1.6852V39.3934H2.7808L7.1632 44.816ZM1.6852 33.8252H4.5144C5.2316 33.8252 5.7816 34.0238 6.1688 34.4165C6.556 34.8136 6.7496 35.3077 6.7496 35.9078C6.7496 36.5431 6.556 37.0461 6.1688 37.4168C5.7816 37.7874 5.2228 37.9727 4.4924 37.9727H1.6852V33.8252Z" fill="#00537A"/>
<path d="M16.6099 36.6918C15.9367 36.3035 15.1799 36.1094 14.3439 36.1094C13.5079 36.1094 12.7731 36.3079 12.1043 36.7006C11.4355 37.0977 10.9031 37.6272 10.5115 38.289C10.1155 38.9552 9.92188 39.7009 9.92188 40.526C9.92188 41.3511 10.1199 42.1232 10.5115 42.7983C10.9075 43.4733 11.4355 44.0116 12.1043 44.4043C12.7731 44.8014 13.5211 44.9955 14.3439 44.9955C15.1667 44.9955 15.9367 44.797 16.6099 44.4043C17.2831 44.0072 17.8199 43.4733 18.2115 42.7983C18.6075 42.1232 18.8011 41.3643 18.8011 40.526C18.8011 39.6877 18.6031 38.9508 18.2115 38.2802C17.8155 37.6095 17.2831 37.0801 16.6099 36.6918ZM16.7815 42.0261C16.5439 42.4629 16.2139 42.8071 15.7959 43.0586C15.3779 43.3101 14.8939 43.4336 14.3439 43.4336C13.7939 43.4336 13.3451 43.3101 12.9271 43.0586C12.5091 42.8071 12.1791 42.4629 11.9415 42.0261C11.7039 41.5893 11.5851 41.0907 11.5851 40.526C11.5851 39.9612 11.7039 39.4847 11.9415 39.0523C12.1791 38.6199 12.5091 38.2846 12.9271 38.0375C13.3451 37.7904 13.8159 37.6713 14.3439 37.6713C14.8719 37.6713 15.3735 37.7948 15.7871 38.0375C16.2007 38.2846 16.5263 38.6199 16.7727 39.0523C17.0191 39.4847 17.1379 39.9745 17.1379 40.526C17.1379 41.0775 17.0191 41.5893 16.7815 42.0261Z" fill="#F5A201"/>
<path d="M26.0569 41.1778C26.0569 41.8837 25.8765 42.4397 25.5201 42.8368C25.1637 43.2383 24.6665 43.4368 24.0329 43.4368C23.6149 43.4368 23.2497 43.3486 22.9417 43.1677C22.6293 42.9868 22.3961 42.7265 22.2333 42.3867C22.0705 42.047 21.9913 41.6411 21.9913 41.1734V36.2891H20.3809V41.244C20.3809 41.9852 20.5349 42.6382 20.8473 43.203C21.1597 43.7677 21.5909 44.2001 22.1453 44.5046C22.6997 44.809 23.3289 44.9634 24.0329 44.9634C24.7369 44.9634 25.3661 44.809 25.9117 44.5046C26.4617 44.2001 26.8885 43.7633 27.2009 43.203C27.5133 42.6382 27.6673 41.9896 27.6673 41.244V36.2891H26.0569V41.1734V41.1778Z" fill="#F5A201"/>
<path d="M32.7536 32.7188H31.1432V36.2926H29.0488V37.7663H31.1432V44.8214H32.7536V37.7663H34.848V36.2926H32.7536V32.7188Z" fill="#F5A201"/>
<path d="M43.4888 38.139C43.15 37.5036 42.6748 37.0095 42.0632 36.6477C41.4516 36.2859 40.7608 36.1094 39.9864 36.1094C39.1636 36.1094 38.42 36.3035 37.7556 36.6918C37.0912 37.0801 36.5676 37.6095 36.1804 38.2802C35.7932 38.9508 35.5996 39.7053 35.5996 40.5436C35.5996 41.382 35.7976 42.1541 36.1892 42.8247C36.5852 43.4954 37.1176 44.0249 37.7908 44.4131C38.464 44.8014 39.234 44.9955 40.092 44.9955C40.7608 44.9955 41.3856 44.872 41.9708 44.6205C42.556 44.369 43.0576 44.0028 43.4756 43.5263L42.4372 42.4674C42.1512 42.8027 41.808 43.0542 41.4076 43.2218C41.0072 43.3895 40.5672 43.4733 40.092 43.4733C39.52 43.4733 39.0096 43.3498 38.5696 43.1071C38.1296 42.86 37.7864 42.5159 37.5488 42.0658C37.4036 41.7923 37.3024 41.4878 37.2452 41.1569H43.9068C43.942 40.9893 43.9684 40.8348 43.9772 40.6981C43.9904 40.5613 43.9948 40.4333 43.9948 40.3142C43.9948 39.5024 43.8232 38.7743 43.4844 38.1434L43.4888 38.139ZM38.5036 37.9581C38.9216 37.7198 39.4056 37.6007 39.9556 37.6007C40.5056 37.6007 40.928 37.711 41.2976 37.9316C41.6672 38.1522 41.9532 38.4655 42.1556 38.867C42.292 39.1406 42.3844 39.4538 42.4284 39.8112H37.254C37.3068 39.5024 37.4036 39.22 37.5356 38.9685C37.7644 38.5361 38.0856 38.2008 38.5036 37.9625V37.9581Z" fill="#F5A201"/>
</svg>
